<svg width="35" height="41" viewBox="0 0 35 41" fill="none" xmlns="http://www.w3.org/2000/svg">
<path d="M15.5014 40.8496C13.8765 40.6871 12.3166 40.289 10.8217 39.6553C9.32683 39.0216 7.89694 38.1848 6.53203 37.1448L9.26184 34.3176C10.2043 35 11.2036 35.5525 12.2597 35.9749C13.3159 36.3974 14.3965 36.6899 15.5014 36.8524V40.8496ZM19.4011 40.8496V36.8524C22.7809 36.3649 25.5757 34.8456 27.7855 32.2946C29.9954 29.7435 31.1003 26.7781 31.1003 23.3983C31.1003 19.5961 29.776 16.3707 27.1274 13.7221C24.4789 11.0736 21.2535 9.7493 17.4513 9.7493H17.0613L20.1811 12.8691L17.4513 15.5989L9.65181 7.79944L17.4513 0L20.1811 2.8273L17.1588 5.84958H17.4513C19.8886 5.84958 22.1715 6.31267 24.3001 7.23886C26.4287 8.16504 28.2811 9.4162 29.8572 10.9923C31.4334 12.5685 32.6845 14.4208 33.6107 16.5494C34.5369 18.678 35 20.961 35 23.3983C35 27.8505 33.5214 31.7259 30.5641 35.0244C27.6068 38.3229 23.8858 40.2646 19.4011 40.8496ZM3.70474 34.3176C2.66481 32.9526 1.82799 31.5227 1.19429 30.0279C0.560585 28.533 0.162488 26.9731 0 25.3482H3.99721C4.1597 26.4531 4.45218 27.5337 4.87465 28.5898C5.29712 29.646 5.84958 30.6453 6.53203 31.5877L3.70474 34.3176ZM0 21.4485C0.194986 19.7911 0.601207 18.1987 1.21866 16.6713C1.83612 15.1439 2.66481 13.7465 3.70474 12.4791L6.53203 15.2089C5.84958 16.1513 5.29712 17.1507 4.87465 18.2068C4.45218 19.263 4.1597 20.3435 3.99721 21.4485H0Z" fill="#F2F2F2"/>
</svg>
