<svg width="35" height="41" viewBox="0 0 35 41" fill="none" xmlns="http://www.w3.org/2000/svg">
<path d="M19.4986 40.8496C21.1235 40.6871 22.6834 40.289 24.1783 39.6553C25.6732 39.0216 27.1031 38.1848 28.468 37.1448L25.7382 34.3176C24.7957 35 23.7964 35.5525 22.7403 35.9749C21.6841 36.3974 20.6035 36.6899 19.4986 36.8524V40.8496ZM15.5989 40.8496V36.8524C12.2191 36.3649 9.42433 34.8456 7.21449 32.2946C5.00464 29.7435 3.89972 26.7781 3.89972 23.3983C3.89972 19.5961 5.224 16.3707 7.87256 13.7221C10.5211 11.0736 13.7465 9.7493 17.5487 9.7493H17.9387L14.8189 12.8691L17.5487 15.5989L25.3482 7.79944L17.5487 0L14.8189 2.8273L17.8412 5.84958H17.5487C15.1114 5.84958 12.8285 6.31267 10.6999 7.23886C8.57126 8.16504 6.71889 9.4162 5.14276 10.9923C3.56662 12.5685 2.31546 14.4208 1.38927 16.5494C0.463093 18.678 0 20.961 0 23.3983C0 27.8505 1.47865 31.7259 4.43593 35.0244C7.39322 38.3229 11.1142 40.2646 15.5989 40.8496ZM31.2953 34.3176C32.3352 32.9526 33.172 31.5227 33.8057 30.0279C34.4394 28.533 34.8375 26.9731 35 25.3482H31.0028C30.8403 26.4531 30.5478 27.5337 30.1253 28.5898C29.7029 29.646 29.1504 30.6453 28.468 31.5877L31.2953 34.3176ZM35 21.4485C34.805 19.7911 34.3988 18.1987 33.7813 16.6713C33.1639 15.1439 32.3352 13.7465 31.2953 12.4791L28.468 15.2089C29.1504 16.1513 29.7029 17.1507 30.1253 18.2068C30.5478 19.263 30.8403 20.3435 31.0028 21.4485H35Z" fill="#F2F2F2"/>
</svg>
