<svg width="30" height="40" viewBox="0 0 30 40" fill="none" xmlns="http://www.w3.org/2000/svg">
<path d="M2 27.3636C1.33333 26.2121 0.833333 25.0303 0.5 23.8182C0.166667 22.6061 0 21.3636 0 20.0909C0 16.0303 1.40909 12.5758 4.22727 9.72727C7.04545 6.87879 10.4848 5.45455 14.5455 5.45455H14.8636L11.9545 2.54545L14.5 0L21.7727 7.27273L14.5 14.5455L11.9545 12L14.8636 9.09091H14.5455C11.5152 9.09091 8.93939 10.1591 6.81818 12.2955C4.69697 14.4318 3.63636 17.0303 3.63636 20.0909C3.63636 20.8788 3.72727 21.6515 3.90909 22.4091C4.09091 23.1667 4.36364 23.9091 4.72727 24.6364L2 27.3636ZM14.5909 40L7.31818 32.7273L14.5909 25.4545L17.1364 28L14.2273 30.9091H14.5455C17.5758 30.9091 20.1515 29.8409 22.2727 27.7045C24.3939 25.5682 25.4545 22.9697 25.4545 19.9091C25.4545 19.1212 25.3636 18.3485 25.1818 17.5909C25 16.8333 24.7273 16.0909 24.3636 15.3636L27.0909 12.6364C27.7576 13.7879 28.2576 14.9697 28.5909 16.1818C28.9242 17.3939 29.0909 18.6364 29.0909 19.9091C29.0909 23.9697 27.6818 27.4242 24.8636 30.2727C22.0455 33.1212 18.6061 34.5455 14.5455 34.5455H14.2273L17.1364 37.4545L14.5909 40Z" fill="#F2F2F2"/>
</svg>
