<svg width="18" height="10" viewBox="0 0 18 10" fill="none" xmlns="http://www.w3.org/2000/svg">
<path d="M4.69565 6.26087C4.26522 6.26087 3.89674 6.10761 3.59022 5.80109C3.2837 5.49457 3.13043 5.12609 3.13043 4.69565C3.13043 4.26522 3.2837 3.89674 3.59022 3.59022C3.89674 3.2837 4.26522 3.13043 4.69565 3.13043C5.12609 3.13043 5.49457 3.2837 5.80109 3.59022C6.10761 3.89674 6.26087 4.26522 6.26087 4.69565C6.26087 5.12609 6.10761 5.49457 5.80109 5.80109C5.49457 6.10761 5.12609 6.26087 4.69565 6.26087ZM4.69565 9.3913C3.3913 9.3913 2.28261 8.93478 1.36957 8.02174C0.456522 7.1087 0 6 0 4.69565C0 3.3913 0.456522 2.28261 1.36957 1.36957C2.28261 0.456522 3.3913 0 4.69565 0C5.56957 0 6.36196 0.215217 7.07283 0.645652C7.7837 1.07609 8.34783 1.64348 8.76522 2.34783H15.6522L18 4.69565L14.4783 8.21739L12.913 7.04348L11.3478 8.21739L9.68478 7.04348H8.76522C8.34783 7.74783 7.7837 8.31522 7.07283 8.74565C6.36196 9.17609 5.56957 9.3913 4.69565 9.3913ZM4.69565 7.82609C5.42609 7.82609 6.06848 7.60435 6.62283 7.16087C7.17717 6.71739 7.54565 6.15652 7.72826 5.47826H10.1739L11.3087 6.28043L12.913 5.08696L14.3022 6.16304L15.7696 4.69565L14.987 3.91304H7.72826C7.54565 3.23478 7.17717 2.67391 6.62283 2.23043C6.06848 1.78696 5.42609 1.56522 4.69565 1.56522C3.83478 1.56522 3.09783 1.87174 2.48478 2.48478C1.87174 3.09783 1.56522 3.83478 1.56522 4.69565C1.56522 5.55652 1.87174 6.29348 2.48478 6.90652C3.09783 7.51957 3.83478 7.82609 4.69565 7.82609Z" fill="#F5F5F5"/>
</svg>
